<?xml version="1.0" encoding="UTF-8"?>
<!DOCTYPE svg PUBLIC "-//W3C//DTD SVG 1.1//EN" "http://www.w3.org/Graphics/SVG/1.1/DTD/svg11.dtd">
<!-- Creator: CorelDRAW -->
<svg xmlns="http://www.w3.org/2000/svg" xml:space="preserve" width="1.70666in" height="1.70666in" version="1.1" style="shape-rendering:geometricPrecision; text-rendering:geometricPrecision; image-rendering:optimizeQuality; fill-rule:evenodd; clip-rule:evenodd"
viewBox="0 0 1707 1707"
 xmlns:xlink="http://www.w3.org/1999/xlink">
 <defs>
  <style type="text/css">
   <![CDATA[
    .fil3 {fill:#1AA1FF}
    .fil0 {fill:#2E2E30}
    .fil4 {fill:#7DD63E}
    .fil1 {fill:#C06000}
    .fil2 {fill:#FF9E5C}
   ]]>
  </style>
 </defs>
 <g id="Layer_x0020_1">
  <metadata id="CorelCorpID_0Corel-Layer"/>
  <path class="fil0" d="M1249 1707l-1113 0c-13,0 -23,-11 -23,-23l0 -139c0,-226 183,-409 409,-409l113 0 49 -186c-118,-61 -199,-185 -199,-327l0 -167c-132,-24 -225,-65 -225,-122 0,-73 146,-112 277,-131l0 -31c0,-95 77,-172 171,-172l290 0c95,0 172,77 172,172l0 31c131,19 276,57 276,131 0,57 -93,98 -224,122l0 167c0,142 -81,266 -200,327l50 186c48,0 139,-3 182,6 193,33 340,201 340,403l0 139c0,12 -10,23 -23,23l-322 0zm-269 -738c-81,30 -172,30 -253,0l-49 183 175 175 176 -175 -49 -183zm4 -51c1,0 3,-1 4,-2 111,-51 188,-163 188,-293l0 -159c-194,29 -452,29 -646,0l0 159c0,235 243,389 454,295zm-402 -696l0 76 543 0 0 -126c0,-70 -57,-127 -127,-127l-290 0c-69,0 -126,57 -126,127l0 50zm-45 27c-188,29 -231,71 -231,85 0,32 139,82 361,99 121,10 262,10 383,-1 229,-19 351,-70 351,-98 0,-14 -43,-56 -231,-85l0 71c0,11 -7,16 -7,16l0 1 -1 1c-1,0 -1,1 -2,1l0 0 0 1 -1 0 -1 0 0 1 -2 0 0 1 -2 0 -3 1 -592 0c-12,0 -22,-10 -22,-23l0 -71zm-102 1412l0 -469c-159,39 -277,182 -277,353l0 116 277 0zm45 -477l0 477 747 0 0 -477 -59 -3 0 275c0,13 -11,23 -23,23l-583 0c-13,0 -23,-10 -23,-23l0 -275 -59 3zm792 8l0 469 276 0 0 -116c0,-171 -117,-314 -276,-353zm-150 -11l-58 0 -195 195c-8,9 -23,9 -32,0l-194 -195 -59 0 0 253 538 0 0 -253z"/>
  <path class="fil1" d="M582 298l543 0 0 -126c0,-70 -57,-127 -127,-127l-290 0c-69,0 -126,57 -126,127l0 50 0 76z"/>
  <path class="fil1" d="M1151 343l-592 0c-12,0 -22,-10 -22,-23l0 -71c-188,29 -231,71 -231,85 0,32 139,82 361,99 121,10 262,10 383,-1 229,-19 351,-70 351,-98 0,-14 -43,-56 -231,-85l0 71c0,11 -7,16 -7,16l0 1 -1 1c-1,0 -1,1 -2,1l0 1 -1 0 -1 0 0 1 -2 0 0 1 -2 0 -3 1z"/>
  <path class="fil2" d="M1176 464c-194,29 -452,29 -646,0l0 159c0,235 243,389 454,295 1,0 3,-1 4,-2 111,-51 188,-163 188,-293l0 -159z"/>
  <path class="fil2" d="M980 969c-81,30 -172,30 -253,0l-49 183 175 175 176 -175 -49 -183z"/>
  <path class="fil3" d="M1064 1181l-195 195c-8,9 -23,9 -32,0l-194 -195 -59 0 0 253 538 0 0 -253 -58 0z"/>
  <path class="fil4" d="M1145 1479l-583 0c-13,0 -23,-10 -23,-23l0 -275 -59 3 0 477 747 0 0 -477 -59 -3 0 275c0,13 -11,23 -23,23z"/>
  <path class="fil3" d="M1272 1192l0 469 276 0 0 -116c0,-171 -117,-314 -276,-353z"/>
  <path class="fil3" d="M435 1661l0 -469c-159,39 -277,182 -277,353l0 116 277 0z"/>
 </g>
</svg>
