<?xml version="1.0" encoding="UTF-8" standalone="no"?> <svg id="Layer_1" data-name="Layer 1" xmlns="http://www.w3.org/2000/svg" viewBox="0 0 64 64"><defs><style>.cls-1{fill:#e5e5e5;}.cls-2{fill:#d1d1d1;}.cls-3{fill:#35251c;}.cls-4{fill:#915441;}.cls-5{fill:#2d2017;}</style></defs><title>Coffee Pack</title><polygon class="cls-1" points="52.85 8.45 53.39 2.59 11.06 2.59 11.55 8.45 13.1 8.45 13.1 55.93 11.55 55.93 10.6 61.8 53.77 61.8 52.85 55.93 51.3 55.93 51.3 8.45 52.85 8.45"/><polygon class="cls-2" points="52.85 55.93 51.3 55.93 51.3 8.45 52.85 8.45 53.39 2.59 34.18 2.59 34.18 61.8 53.77 61.8 52.85 55.93"/><path class="cls-3" d="M55.52,63.3H8.83l1.45-8.87H11.6V10H10.17L9.44,1.09H55L54.21,10H52.8V54.43h1.33Zm-43.16-3H52l-.45-2.87H49.8V7h1.68l.27-2.86H12.69L12.93,7H14.6V57.43H12.83Z"/><rect class="cls-3" x="16.9" y="7.5" width="4" height="2"/><rect class="cls-3" x="23.54" y="7.5" width="4" height="2"/><rect class="cls-3" x="30.18" y="7.5" width="4" height="2"/><rect class="cls-3" x="36.82" y="7.5" width="4" height="2"/><rect class="cls-3" x="43.46" y="7.5" width="4" height="2"/><rect class="cls-3" x="16.9" y="54.8" width="4" height="2"/><rect class="cls-3" x="23.54" y="54.8" width="4" height="2"/><rect class="cls-3" x="30.18" y="54.8" width="4" height="2"/><rect class="cls-3" x="36.82" y="54.8" width="4" height="2"/><rect class="cls-3" x="43.46" y="54.8" width="4" height="2"/><ellipse class="cls-4" cx="31.93" cy="32.73" rx="6.78" ry="9.34" transform="translate(-7.52 9.62) rotate(-15.35)"/><path class="cls-5" d="M24.06,34.89h0a12.73,12.73,0,0,0,4.13,6.55,7.85,7.85,0,0,0,4.87,1.86,6.25,6.25,0,0,0,1.71-.24c4.34-1.19,6.6-6.79,5-12.49A12.64,12.64,0,0,0,35.67,24a7.32,7.32,0,0,0-6.57-1.62,7.32,7.32,0,0,0-4.83,4.75A12.74,12.74,0,0,0,24.06,34.89ZM34.87,40c-.62-1.09-.56-2.35-.38-4.72a44.75,44.75,0,0,0,.19-4.8,11.5,11.5,0,0,0-.91-4.47l.17.12a9.91,9.91,0,0,1,3.2,5.13C38.16,35,37.12,38.74,34.87,40Zm-8-11.92a4.71,4.71,0,0,1,2.69-2.94c.7.39,2.28,1.66,2.36,5.4a40.76,40.76,0,0,1-.18,4.53A13,13,0,0,0,32,40.38a5.72,5.72,0,0,1-2.09-1.1,9.9,9.9,0,0,1-3.19-5.12h0A9.9,9.9,0,0,1,26.86,28.12Z"/></svg>